<?xml version="1.0" standalone="no"?>
<!DOCTYPE svg PUBLIC "-//W3C//DTD SVG 20010904//EN"
        "http://www.w3.org/TR/2001/REC-SVG-20010904/DTD/svg10.dtd">
<svg version="1.0" xmlns="http://www.w3.org/2000/svg"
     width="500.000000pt" height="100.000000pt" viewBox="0 0 500.000000 100.000000"
     preserveAspectRatio="xMidYMid meet">
    <metadata>
        Created by potrace 1.13, written by Peter Selinger 2001-2015
    </metadata>
    <g transform="translate(0.000000,100.000000) scale(0.100000,-0.100000)"
       fill="#000000" stroke="none">
        <path d="M560 500 l0 -500 405 0 405 0 0 500 c0 493 0 500 -20 500 -20 0 -20
-7 -20 -475 l0 -475 -355 0 -355 0 0 450 0 450 215 0 215 0 0 25 0 25 -245 0
-245 0 0 -500z"/>
        <path d="M1110 555 l0 -445 80 0 80 0 0 445 0 445 -80 0 -80 0 0 -445z"/>
        <path d="M680 500 l0 -390 185 0 185 0 0 190 0 191 -77 -3 -78 -3 -3 -107 c-3
-107 -3 -108 -27 -108 l-25 0 0 230 0 230 25 0 c24 0 24 -2 27 -92 l3 -93 78
-3 77 -3 0 176 0 175 -185 0 -185 0 0 -390z"/>
        <path d="M1560 764 c-19 -41 -30 -83 -30 -110 0 -41 2 -44 26 -44 l26 0 -26
-44 c-14 -25 -26 -58 -26 -75 l0 -31 79 0 c79 0 79 0 90 30 l10 30 -45 0 c-24
0 -44 2 -44 4 0 2 24 50 54 105 l54 101 -44 0 c-38 0 -46 -4 -56 -25 -6 -14
-15 -25 -21 -25 -5 0 10 34 32 75 l42 75 -46 0 -46 0 -29 -66z"/>
        <path d="M1730 795 c0 -34 1 -35 40 -35 l40 0 0 -170 0 -170 -40 0 c-39 0 -40
-1 -40 -35 l0 -35 118 0 c118 0 119 0 130 25 19 40 15 45 -33 45 l-45 0 0 170
0 170 33 0 c26 0 36 6 45 25 7 14 12 30 12 35 0 6 -54 10 -130 10 l-130 0 0
-35z"/>
        <path d="M2350 750 l0 -80 -40 0 c-39 0 -40 -1 -40 -35 0 -34 1 -35 40 -35
l40 0 0 -130 c0 -72 4 -130 9 -130 5 0 25 7 45 15 l36 15 0 115 0 114 31 3
c24 2 34 10 44 36 l14 32 -44 0 -45 0 0 80 0 80 -45 0 -45 0 0 -80z"/>
        <path d="M2771 783 c-7 -27 -14 -56 -17 -65 -4 -15 1 -18 31 -18 29 0 37 5 45
25 9 23 15 25 70 25 l60 0 0 -170 c0 -163 -1 -170 -20 -170 -16 0 -20 -7 -20
-30 0 -25 4 -30 23 -30 13 0 37 14 55 33 l32 33 0 197 0 197 -90 0 c-53 0 -90
4 -90 10 0 6 -15 10 -34 10 -32 0 -34 -2 -45 -47z"/>
        <path d="M3220 620 l0 -210 -65 0 -65 0 0 -30 0 -30 220 0 219 0 16 30 16 30
-76 0 -75 0 0 210 0 210 -40 0 -40 0 0 -210 c0 -180 -2 -210 -15 -210 -13 0
-15 30 -15 210 l0 210 -40 0 -40 0 0 -210z"/>
        <path d="M2050 585 l0 -235 68 0 c65 0 69 1 105 38 l37 38 0 197 0 197 -105 0
-105 0 0 -235z m130 -5 l0 -170 -25 0 -25 0 0 170 0 170 25 0 25 0 0 -170z"/>
        <path d="M2649 793 c-2 -24 -2 -25 -6 -5 -3 17 -11 22 -34 22 -35 0 -35 -2
-44 -97 l-6 -73 35 0 c34 0 36 2 36 35 0 19 5 35 10 35 6 0 10 -25 10 -56 0
-47 -6 -66 -40 -123 -22 -37 -40 -71 -40 -75 0 -5 18 -6 40 -4 l40 4 0 -57 0
-57 35 11 35 10 0 116 c1 86 4 121 15 135 19 25 19 36 0 36 -10 0 -15 10 -15
30 0 17 4 30 8 30 4 0 13 14 19 30 10 27 9 30 -8 30 -14 0 -19 7 -19 25 0 22
-4 25 -35 25 -31 0 -35 -3 -36 -27z"/>
        <path d="M3093 788 c3 -13 14 -87 23 -165 l18 -143 38 0 c35 0 38 2 33 23 -2
12 -11 76 -20 142 -22 172 -19 165 -61 165 -32 0 -36 -2 -31 -22z"/>
        <path d="M3465 788 c-2 -13 -12 -77 -20 -143 -9 -66 -18 -130 -20 -142 -5 -21
-2 -23 33 -23 l38 0 18 148 c10 81 20 155 22 165 4 14 -1 17 -30 17 -29 0 -37
-4 -41 -22z"/>
        <path d="M2795 668 c-2 -7 -17 -77 -34 -155 l-29 -143 34 0 c27 0 35 5 39 23
10 43 55 270 55 278 0 14 -60 10 -65 -3z"/>
        <path d="M2880 677 c0 -2 -13 -71 -30 -152 -16 -81 -30 -150 -30 -152 0 -1 16
-3 35 -3 19 0 35 2 35 3 0 2 14 71 30 152 17 81 30 150 30 152 0 1 -16 3 -35
3 -19 0 -35 -2 -35 -3z"/>
    </g>
</svg>
